<svg width="59" height="59" viewBox="0 0 59 59" fill="none" xmlns="http://www.w3.org/2000/svg">
<g id="associates-icon">
<path id="Shape" fill-rule="evenodd" clip-rule="evenodd" d="M41.7606 0.713287L0.552317 41.908C0.307757 42.1526 0.185477 42.4651 0.158304 42.7775C-0.833521 45.5492 3.05226 50.4948 5.76959 53.2121C7.794 55.2365 9.94069 56.9077 11.8292 57.9267C13.1607 58.6467 14.2884 59 15.2123 59C15.9732 59 16.5981 58.7554 17.0873 58.2799C17.1824 58.1848 17.2503 58.1033 17.3318 57.9946L35.8912 39.4352C35.9727 39.3809 36.0406 39.3265 36.1086 39.2586C36.2037 39.1635 36.2716 39.082 36.3531 38.9733L37.046 38.2804V43.3482C37.046 44.0954 37.6574 44.7068 38.4047 44.7068C39.152 44.7068 39.7634 44.0954 39.7634 43.3482V35.7397H46.4208C47.1681 35.7397 47.7795 35.1283 47.7795 34.381C47.7795 33.6337 47.1681 33.0223 46.4208 33.0223H42.3041L57.4532 17.8732L58.1869 17.0988C60.6189 14.6124 56.1489 8.82452 53.1191 5.79469C50.0485 2.75128 44.2198 -1.75948 41.7606 0.713287ZM27.3316 19.1096C28.0381 19.0145 31.0408 20.2509 34.8858 24.0959C38.6357 27.8458 39.8992 30.8077 39.8721 31.5957L36.2988 35.169C35.2662 32.6555 32.8885 29.7887 31.0408 27.9409C29.0163 25.9165 26.8696 24.2454 24.9811 23.2264C24.5192 22.9818 24.0844 22.778 23.6768 22.615L26.9648 19.327C27.1006 19.2862 27.2229 19.2047 27.3316 19.1096ZM12.033 46.9622C13.8808 48.81 16.2585 51.6768 17.2911 54.1903L34.1249 37.3701C34.1521 36.582 32.8885 33.6201 29.1386 29.8702C25.2936 26.0252 22.291 24.7888 21.5844 24.8839C21.4758 24.979 21.3535 25.047 21.2176 25.1013L4.66907 41.6499C7.20977 42.6553 10.1581 45.0873 12.033 46.9622ZM7.69889 51.2828C4.09843 47.6823 2.78053 44.8155 2.71259 43.8917C3.63649 43.9596 6.50327 45.2775 10.1037 48.8779C13.7042 52.4784 15.0221 55.3452 15.09 56.2691C14.1661 56.2012 11.2994 54.8968 7.69889 51.2828ZM55.5103 15.9711L56.1625 15.2782C56.2576 14.5581 55.0212 11.5554 51.1897 7.724C47.3447 3.89256 44.3285 2.629 43.5948 2.71052L29.4511 16.8678C31.9918 17.8732 34.9401 20.3052 36.8151 22.1802C38.6629 24.028 41.0405 26.8948 42.0731 29.4083L55.5103 15.9711Z" fill="#FEBC11"/>
</g>
</svg>
