<svg width="61" height="59" viewBox="0 0 61 59" fill="none" xmlns="http://www.w3.org/2000/svg">
<g id="bachelors-icon">
<path id="Shape" fill-rule="evenodd" clip-rule="evenodd" d="M60.3447 13.7187L30.9744 0.102977C30.6729 -0.0343257 30.3271 -0.0343257 30.0256 0.102977L0.655273 13.7187C0.255699 13.9047 0 14.3068 0 14.7492C0 15.1915 0.255699 15.5936 0.655273 15.7796L9.0371 19.6653V35.1727C9.03756 35.5297 9.20487 35.8658 9.48895 36.0804C15.5599 40.6288 22.9263 43.0951 30.5 43.1152C34.7491 43.1126 38.9613 42.3239 42.9259 40.7885V43.9063L38.5972 50.4284C38.3434 50.8092 38.3434 51.3062 38.5972 51.687L43.1157 58.4948C43.3252 58.8104 43.6779 59 44.0555 59C44.4332 59 44.7859 58.8104 44.9954 58.4948L49.5139 51.687C49.7676 51.3062 49.7676 50.8092 49.5139 50.4284L45.1851 43.9063V39.8295C47.416 38.8007 49.5358 37.5444 51.511 36.0804C51.7951 35.8658 51.9624 35.5297 51.9629 35.1727V19.6653L60.3447 15.7796C60.7443 15.5936 61 15.1915 61 14.7492C61 14.3068 60.7443 13.9047 60.3447 13.7187ZM44.0555 55.82L40.8939 51.0577L44.0555 46.2954L47.2171 51.0577L44.0555 55.82ZM11.2964 34.5988C16.8924 38.6417 23.6068 40.826 30.5 40.8459C34.7652 40.8435 38.9879 39.9952 42.9259 38.3497V23.8549L30.9744 29.3953C30.6733 29.5342 30.3267 29.5342 30.0256 29.3953L11.2964 20.7126V34.5988ZM49.7036 34.5988C48.2706 35.6229 46.7598 36.5326 45.1851 37.3195V22.8074L49.7036 20.7126V34.5988ZM44.559 20.5546C44.5685 20.5652 44.578 20.5757 44.5907 20.5828L57.1741 14.7492L30.5 2.38338L3.82591 14.7492L30.5 27.1149L41.9115 21.8252L30.0321 16.3942C29.6555 16.2322 29.3958 15.8782 29.3532 15.469C29.3106 15.0598 29.4919 14.6595 29.827 14.4229C30.1621 14.1863 30.5985 14.1504 30.9674 14.3291L44.523 20.5243C44.538 20.5312 44.5485 20.5429 44.559 20.5546Z" fill="#FEBC11"/>
</g>
</svg>
