<svg width="66" height="59" viewBox="0 0 66 59" fill="none" xmlns="http://www.w3.org/2000/svg">
<g id="certificate-icon">
<path id="Shape" fill-rule="evenodd" clip-rule="evenodd" d="M65.5576 1.62005C65.5576 0.726881 64.8307 0 63.9383 0H1.61922C0.726058 0 0 0.726881 0 1.62005V47.7519C0 48.645 0.726058 49.3719 1.61922 49.3719H43.7997V58.0229C43.7997 58.4188 44.0401 58.7761 44.4064 58.9267C44.7727 59.0774 45.195 58.9909 45.4733 58.7078L49.5415 54.5753L53.6105 58.7078C53.7974 58.8979 54.0493 59 54.3061 59C54.4313 59 54.5564 58.9761 54.6766 58.9267C55.0437 58.7761 55.2833 58.4188 55.2833 58.0229V49.3719H63.9383C64.8307 49.3719 65.5576 48.645 65.5576 47.7519V1.62005ZM51.0957 47.7749L53.329 45.5424V55.6381L50.2371 52.4976C50.0535 52.3115 49.8033 52.2062 49.5415 52.2062C49.2797 52.2062 49.0286 52.3115 48.8459 52.4976L45.754 55.6381V45.5457L47.9815 47.7741C48.0342 47.8276 48.0902 47.877 48.147 47.9239L48.1557 47.9303L48.1558 47.9303C48.1597 47.9331 48.1635 47.9359 48.1673 47.9388C48.1699 47.9408 48.1724 47.943 48.175 47.9453C48.2244 47.984 48.2738 48.0211 48.3265 48.0556L48.3288 48.057C48.3303 48.0579 48.3317 48.0586 48.3322 48.0597C48.6878 48.2935 49.1036 48.4195 49.5382 48.4195C49.9728 48.4195 50.3869 48.2944 50.7409 48.0622C50.7442 48.0597 50.7475 48.0581 50.7508 48.0564C50.8018 48.0219 50.852 47.9848 50.9006 47.9461L50.9052 47.9426L50.9137 47.9367C50.9167 47.9346 50.9198 47.9324 50.9228 47.9302L50.9252 47.9283L50.9294 47.9247C50.9862 47.8786 51.0405 47.8293 51.0924 47.7774C51.0932 47.7766 51.0949 47.7757 51.0957 47.7749ZM63.6033 1.95344H1.95426V47.4185H43.7997V45.093L41.5096 45.0921C40.2962 45.0921 39.3092 44.1043 39.3092 42.8901L39.31 39.2013C39.31 39.1355 39.2828 39.0721 39.2376 39.026L36.6297 36.4173C36.214 36.0016 35.9843 35.4484 35.9843 34.8606C35.9851 34.2721 36.2148 33.7189 36.6305 33.304L39.2392 30.6961C39.2861 30.6492 39.3117 30.5866 39.3117 30.5208L39.3125 26.832C39.3125 25.6186 40.3011 24.6308 41.5137 24.6308H41.5145L45.2033 24.6316C45.2683 24.6316 45.3325 24.6053 45.3786 24.5592L47.9873 21.9513C48.403 21.5364 48.9554 21.3067 49.544 21.3067C50.1325 21.3076 50.6857 21.5364 51.1015 21.9521L53.7085 24.5608C53.7554 24.6078 53.818 24.6341 53.8847 24.6341L57.5726 24.6349C58.7868 24.6349 59.7738 25.6228 59.7738 26.837L59.773 30.5257C59.773 30.5907 59.7993 30.6541 59.8454 30.7002L62.4533 33.3097C62.869 33.7255 63.0979 34.2786 63.0979 34.8664C63.097 35.4542 62.8682 36.0074 62.4525 36.4231L59.8438 39.0309C59.7969 39.077 59.7705 39.1404 59.7705 39.2055V42.8942C59.7697 44.1084 58.7827 45.0954 57.5685 45.0954H55.2833V47.4185H63.6033V1.95344ZM49.3686 23.3335C49.4649 23.2371 49.623 23.2371 49.7193 23.3335L52.3264 25.9422C52.7429 26.3587 53.2953 26.5875 53.8838 26.5875L57.5718 26.5884C57.7084 26.5884 57.8195 26.6995 57.8195 26.837L57.8187 30.5249C57.8187 31.1126 58.0476 31.6658 58.4633 32.0824L61.0712 34.6911C61.1313 34.7503 61.1436 34.8187 61.1436 34.8656C61.1436 34.9125 61.1304 34.9817 61.0712 35.0409L58.4625 37.6488C58.0459 38.0645 57.8171 38.6177 57.8171 39.2055L57.8162 42.8942C57.8162 43.0308 57.7051 43.142 57.5685 43.142L53.8797 43.1412C53.2911 43.1412 52.7388 43.37 52.3231 43.7857L49.7135 46.3928C49.6395 46.4669 49.5316 46.4833 49.4402 46.4438C49.4123 46.4323 49.3867 46.4158 49.3629 46.3928L46.755 43.7841C46.5097 43.5379 46.2141 43.3593 45.8939 43.2523C45.8412 43.235 45.7894 43.221 45.7359 43.2078C45.5622 43.1642 45.3827 43.1395 45.1991 43.1387H41.5104C41.4256 43.1387 41.3688 43.0984 41.3351 43.0654C41.3021 43.0325 41.2635 42.9757 41.2635 42.8909L41.2643 39.2022C41.2643 38.6136 41.0346 38.0604 40.6189 37.6447L38.011 35.036C37.9517 34.9759 37.9394 34.9076 37.9394 34.8606C37.9394 34.8137 37.9517 34.7454 38.011 34.6853L40.6197 32.0782C41.0363 31.6625 41.2659 31.1093 41.2659 30.5216L41.2667 26.8329C41.2667 26.7157 41.3478 26.6173 41.457 26.5916L41.5137 26.5851H41.5145L45.2033 26.5859C45.7918 26.5859 46.3434 26.357 46.7599 25.9413L49.3686 23.3335ZM49.5415 27.5474C53.6204 27.5474 56.9395 30.8657 56.9395 34.9446C56.9395 39.0235 53.6204 42.3418 49.5415 42.3418C45.4617 42.3418 42.1434 39.0235 42.1434 34.9446C42.1434 30.8657 45.4617 27.5474 49.5415 27.5474ZM19.3121 39.8023C19.3121 39.2623 18.8742 38.8251 18.335 38.8251H9.5968C9.05761 38.8251 8.61967 39.2623 8.61967 39.8023C8.61967 40.3415 9.05761 40.7794 9.5968 40.7794H18.335C18.8742 40.7794 19.3121 40.3415 19.3121 39.8023ZM49.5415 29.5008C46.5401 29.5008 44.0977 31.9432 44.0977 34.9446C44.0977 37.946 46.5401 40.3884 49.5415 40.3884C52.5429 40.3884 54.9853 37.946 54.9853 34.9446C54.9853 31.9432 52.5429 29.5008 49.5415 29.5008ZM24.3361 33.9041C24.3361 33.3641 23.899 32.927 23.3598 32.927H9.5968C9.05761 32.927 8.61967 33.3641 8.61967 33.9041C8.61967 34.4433 9.05761 34.8812 9.5968 34.8812H23.3598C23.899 34.8812 24.3361 34.4433 24.3361 33.9041ZM49.1373 15.5633C49.6765 15.5633 50.1144 16.0004 50.1144 16.5404C50.1144 17.0796 49.6765 17.5168 49.1373 17.5168H13.4197C12.8805 17.5168 12.4426 17.0796 12.4426 16.5404C12.4426 16.0004 12.8805 15.5633 13.4197 15.5633H49.1373ZM50.1144 9.85282C50.1144 9.3128 49.6765 8.87568 49.1373 8.87568H13.4197C12.8805 8.87568 12.4426 9.3128 12.4426 9.85282C12.4426 10.392 12.8805 10.8299 13.4197 10.8299H49.1373C49.6765 10.8299 50.1144 10.392 50.1144 9.85282Z" fill="#FEBC11"/>
</g>
</svg>
