<?xml version="1.0" encoding="UTF-8"?>
<svg width="62.0521216px" height="55px" viewBox="0 0 62.0521216 55" version="1.1" xmlns="http://www.w3.org/2000/svg" xmlns:xlink="http://www.w3.org/1999/xlink">
    <title>icons/ support</title>
    <g id="icons/-support" stroke="none" stroke-width="1" fill="none" fill-rule="evenodd">
        <path d="M10.5023711,14.2193209 C10.2781648,14.2634834 10.0796673,14.3925068 9.94828574,14.5794764 L0.168679957,27.8775239 C-0.101454711,28.2503531 -0.0412737404,28.7679095 0.307201285,29.0688073 L10.2530327,37.4909041 C8.43887224,38.0465994 7.09474637,39.7123172 7.09474637,41.7019525 C7.09474637,44.1395732 9.08982585,46.134635 11.5274289,46.134635 C12.181629,46.134635 12.7954695,45.9764565 13.3559104,45.719071 C13.5885748,47.448014 15.0579187,48.7942445 16.8466479,48.7942445 C17.1610519,48.7942445 17.4698378,48.7338625 17.7608887,48.6557232 C17.7590207,48.702574 17.7331844,48.7469664 17.7331844,48.7942445 C17.7331844,50.7422311 19.3313499,52.3403905 21.2793304,52.3403905 C21.9511336,52.3403905 22.5699928,52.1433932 23.1078119,51.8140094 C23.2915573,53.5942439 24.7728507,55 26.5985494,55 C27.509791,55 28.3224081,54.6303462 28.953412,54.058055 C29.8844136,54.7026743 30.7709386,55 31.9177684,55 C33.082165,55 34.1567509,54.416393 34.9652376,53.6147867 C35.6726636,52.9133812 36.2013044,52.0193224 36.3227467,51.0105857 C36.8628619,51.296086 37.477659,51.453854 38.1235239,51.453854 C39.9478786,51.453854 41.4724519,50.1893196 41.9467126,48.4894976 C42.4079562,48.6862971 42.9157821,48.7942445 43.4427429,48.7942445 C45.4336114,48.7942445 47.0786596,47.2917114 47.3767487,45.3589155 C47.4375376,45.4048869 47.5343997,45.4836583 47.5983828,45.5251411 C48.3090322,45.9860515 49.1348826,46.134635 49.8978368,46.134635 C50.9825266,46.134635 52.0475602,45.7901712 52.834489,45.0541686 C53.6214178,44.3182547 54.0811809,43.1811386 54.0811809,41.8681781 C54.0541504,40.451936 53.1249875,39.1844991 51.9756568,38.3497363 L51.9756568,38.3220321 L51.9202482,38.2943278 L51.172233,37.684834 L61.7275583,29.0688073 C62.085033,28.7757557 62.1573844,28.2572372 61.8937839,27.8775239 L52.1141781,14.5794764 C51.9190734,14.3066356 51.5867021,14.1672541 51.2553458,14.2193209 C51.2085087,14.2248567 51.1621879,14.2341209 51.1168245,14.2470252 C45.7312199,16.0901257 42.5542693,15.9923939 36.3504509,15.9923939 C34.3587607,15.9923939 32.65599,16.5232946 31.0312319,17.5715371 C29.4028886,16.5163565 27.7115995,15.9923939 25.7120129,15.9923939 C19.5081945,15.9923939 16.3312439,16.0900814 10.9456393,14.2470252 C10.8026265,14.2003333 10.6500846,14.1907994 10.5023711,14.2193209 Z M11.0287521,16.103211 C16.2582403,17.7908485 19.7818036,17.7654669 25.7120129,17.7654669 C27.2443416,17.7654669 28.4209759,18.0969163 29.6460186,18.818229 L22.387501,26.9078746 C22.174686,27.151019 22.1109983,27.4906869 22.2212754,27.7944111 C22.7380083,29.3446088 23.7765521,30.2754278 24.8254764,30.703359 C25.8744007,31.1312015 26.8934735,31.0990203 27.5681987,31.0358102 C28.3245145,30.9648873 28.9929684,30.6240583 29.78454,30.176978 C30.5761116,29.7298976 31.4348755,29.1513882 32.2225153,28.5978348 C33.4812979,27.7130714 34.1555612,27.1655021 34.5496736,26.8524661 L50.8674861,39.7349496 C50.8856273,39.744827 50.9041081,39.7540674 50.9228947,39.7626539 C51.6857992,40.3022887 52.284558,41.3219829 52.3082043,41.8681781 C52.3082043,41.8770434 52.3082043,41.8896766 52.3082043,41.8958823 C52.3015476,42.7932346 52.0214907,43.3723646 51.6155013,43.7520681 C51.204643,44.1362931 50.6128338,44.361562 49.8978368,44.361562 C49.4741814,44.361562 48.759031,44.1529599 48.5680321,44.0291108 C48.6530864,44.0840761 48.3380654,43.8596937 47.9862425,43.5858425 C47.6344196,43.3119914 47.13378,42.9200536 46.5733249,42.4776719 C45.4524148,41.5929971 44.017825,40.4599148 42.5839107,39.3193856 C39.7160821,37.0382386 36.9045362,34.8035903 36.9045362,34.8035903 C36.5220201,34.4975775 35.9638572,34.5595956 35.6578443,34.9421117 C35.3518315,35.3246278 35.4138495,35.8827907 35.7963656,36.1888036 C35.7963656,36.1888036 38.6060985,38.4220334 41.4757401,40.7045989 C42.9105613,41.8458374 44.3685885,43.0031664 45.4928586,43.8905895 C45.6382506,44.0053295 45.7207517,44.0642017 45.853014,44.1676321 C45.7273281,44.3249475 45.6589339,44.5203594 45.6590842,44.7217174 C45.6590842,46.0102982 44.6605693,47.0211715 43.4427429,47.0211715 C42.9763565,47.0211715 42.5532888,46.8600435 42.196051,46.6056075 C42.2533833,46.6463882 42.0476829,46.4941255 41.8081913,46.3008606 C41.5686996,46.1075956 41.220375,45.8362268 40.838542,45.5251411 C40.0748759,44.9028812 39.1008524,44.0818154 38.1235239,43.2810956 C36.168867,41.6797447 34.2449267,40.1228093 34.2449267,40.1228093 C34.0700311,39.967852 33.8410351,39.8882012 33.6077286,39.9011752 C33.2458851,39.9332601 32.9402194,40.1828226 32.8363969,40.5309332 C32.7325745,40.8790439 32.8516017,41.2552692 33.1367561,41.4803184 C33.1367561,41.4803184 35.0317261,43.0638942 36.987649,44.6663089 C37.9656105,45.4674719 38.9643639,46.2862327 39.7303713,46.9103544 C39.9756157,47.1101727 40.1511739,47.2332505 40.3398652,47.3813269 C40.3398652,48.6699077 39.3413502,49.680781 38.1235239,49.680781 C37.6571375,49.680781 37.2341301,49.519653 36.876832,49.265217 C36.7534208,49.1774499 32.9349556,46.3903564 30.6987807,44.5554918 C30.5169919,44.3934316 30.2765455,44.3132828 30.0338783,44.3338577 C29.6767869,44.3755467 29.3802192,44.6287471 29.2830575,44.9748857 C29.1858958,45.3210242 29.3073764,45.6915715 29.5906101,45.9130009 C31.2867078,47.3047453 33.2870169,48.8080417 34.5773779,49.7638938 L34.5773779,50.5673175 C34.5773779,51.1357647 34.2557061,51.8355523 33.7185457,52.3680948 C33.1813852,52.9007259 32.4630752,53.226927 31.9177684,53.226927 C30.9466324,53.226927 30.6483395,53.1456502 29.9230613,52.6174332 C30.0512403,52.2523707 30.1446954,51.8605934 30.1446954,51.453854 C30.1446954,49.5058673 28.5465299,47.907708 26.5985494,47.907708 C25.9267462,47.907708 25.307887,48.1047053 24.7700679,48.434089 C24.5863225,46.6538546 23.1050291,45.2480985 21.2793304,45.2480985 C20.9649264,45.2480985 20.6561404,45.308484 20.3650896,45.3866198 C20.3669576,45.339769 20.3927939,45.2953766 20.3927939,45.2480985 C20.3927939,43.3001118 18.7946283,41.7019525 16.8466479,41.7019525 C16.5415942,41.7019525 16.2433279,41.7667689 15.9601114,41.8404738 C15.9616105,41.7933961 15.9601114,41.7493769 15.9601114,41.7019525 C15.9601114,39.8128647 14.7527666,38.2089038 13.0788678,37.5740169 C13.0540714,37.5349838 13.0262837,37.4979336 12.995755,37.4631998 L2.10797855,28.2376794 L11.0287521,16.103211 Z M51.0337117,16.103211 L59.9544853,28.2653836 L49.7593155,36.5766633 L35.1314632,25.0239845 C34.8011226,24.7726982 34.3406641,24.7842096 34.0232926,25.0516888 C34.0232926,25.0516888 32.7149447,26.0905323 31.1974575,27.157213 C30.4387144,27.6904647 29.6339582,28.2255338 28.9257077,28.6255391 C28.2174573,29.0255444 27.5524157,29.2763455 27.4019731,29.2904415 C26.8907509,29.3383144 26.1396746,29.3063548 25.4903788,29.0411031 C24.956854,28.8234584 24.494347,28.3877257 24.1328698,27.6558898 L31.557613,19.3723144 C31.5690227,19.3643355 31.5739341,19.3527662 31.5853172,19.3446101 C33.142578,18.2273436 34.4736966,17.7654669 36.3504509,17.7654669 C42.2806602,17.7654669 45.8042235,17.7908219 51.0337117,16.103211 Z M11.5274289,39.042343 C13.0067923,39.042343 14.1870384,40.222589 14.1870384,41.7019525 C14.1870384,43.1813159 13.0067923,44.361562 11.5274289,44.361562 C10.0480654,44.361562 8.86781938,43.1813159 8.86781938,41.7019525 C8.86781938,40.222589 10.0480654,39.042343 11.5274289,39.042343 Z M16.8466479,43.4750255 C17.8363896,43.4750255 18.6197209,44.2583691 18.6197209,45.2480985 C18.6197209,46.2378278 17.8363896,47.0211715 16.8466479,47.0211715 C15.8569061,47.0211715 15.0735749,46.2378278 15.0735749,45.2480985 C15.0735749,44.2583691 15.8569061,43.4750255 16.8466479,43.4750255 Z M21.2793304,47.0211715 C22.2690722,47.0211715 23.0524034,47.8045151 23.0524034,48.7942445 C23.0524034,49.7839738 22.2690722,50.5673175 21.2793304,50.5673175 C20.2895886,50.5673175 19.5062574,49.7839738 19.5062574,48.7942445 C19.5062574,47.8045151 20.2895886,47.0211715 21.2793304,47.0211715 Z M26.5985494,49.680781 C27.5882912,49.680781 28.3716224,50.4641246 28.3716224,51.453854 C28.3716224,52.4435833 27.5882912,53.226927 26.5985494,53.226927 C25.6088076,53.226927 24.8254764,52.4435833 24.8254764,51.453854 C24.8254764,50.4641246 25.6088076,49.680781 26.5985494,49.680781 Z" id="Shape" fill="#FEBC11" fill-rule="nonzero"></path>
        <path d="M30.9204148,0.00703265374 C30.4637459,0.0642544582 30.1267893,0.461381906 30.1446954,0.921273421 L30.1446954,6.24049243 C30.1401738,6.56020933 30.3081508,6.85759397 30.5843048,7.01877194 C30.8604587,7.17994991 31.2020051,7.17994991 31.478159,7.01877194 C31.754313,6.85759397 31.92229,6.56020933 31.9177684,6.24049243 L31.9177684,0.921273421 C31.9279512,0.660859576 31.8230466,0.409153972 31.6309348,0.233051448 C31.4388229,0.056948925 31.1789622,-0.0257136455 30.9204148,0.00703265374 L30.9204148,0.00703265374 Z" id="Path" fill="#FEBC11" fill-rule="nonzero" opacity="0.4"></path>
        <path d="M17.6500716,2.66664216 C17.350282,2.68758718 17.0815088,2.85896475 16.9360385,3.1219303 C16.7905682,3.38489584 16.7882051,3.70364925 16.9297607,3.96874264 L18.7028337,7.51488865 C18.924693,7.95860731 19.4642506,8.13845983 19.9079692,7.9166005 C20.3516879,7.69474117 20.5315404,7.1551836 20.3096811,6.71146494 L18.5366081,3.16531894 C18.3753091,2.8292561 18.0210313,2.6299748 17.6500716,2.66664216 Z" id="Path" fill="#FEBC11" fill-rule="nonzero" opacity="0.4"></path>
        <path d="M44.3015752,2.66664216 C43.9700974,2.67474046 43.6708403,2.86712006 43.5258557,3.16531894 L41.7527827,6.71146494 C41.5309234,7.1551836 41.7107759,7.69474117 42.1544946,7.9166005 C42.5982132,8.13845983 43.1377708,7.95860731 43.3596301,7.51488865 L45.1327031,3.96874264 C45.2831515,3.68627991 45.2697029,3.3446608 45.0975148,3.07489945 C44.9253267,2.80513811 44.6211255,2.64910571 44.3015752,2.66664216 Z" id="Path" fill="#FEBC11" fill-rule="nonzero" opacity="0.4"></path>
    </g>
</svg>