<?xml version="1.0" encoding="UTF-8"?>
<svg width="55px" height="55px" viewBox="0 0 55 55" version="1.1" xmlns="http://www.w3.org/2000/svg" xmlns:xlink="http://www.w3.org/1999/xlink">
    <title>icons/ tuition</title>
    <g id="icons/-tuition" stroke="none" stroke-width="1" fill="none" fill-rule="evenodd">
        <path d="M54.9858093,38.0950669 C54.2268169,36.5755201 52.4468064,35.8694492 50.8525738,36.4555502 L40.4919302,40.7403376 L40.4919302,40.2581268 C40.4093827,39.4430262 40.0774085,38.673231 39.541286,38.0537346 C38.8880324,37.29192 37.9744404,36.8007415 36.97868,36.6759894 L30.6410523,36.6759894 C27.4997934,36.6759894 27.4446836,36.4142178 22.9807892,35.8217874 C18.5168949,35.229357 18.365343,34.1684932 14.3836595,34.1684932 L13.7774516,34.1684932 C11.6220462,34.2897683 9.52381366,34.9074502 7.64648563,35.9733394 C7.58348048,35.1373885 6.9000032,34.4836276 6.0620787,34.4578197 L1.63951674,34.4578197 C1.20468986,34.4578197 0.787672366,34.630554 0.480203335,34.938023 C0.172734303,35.2454921 0,35.6625096 0,36.0973364 L0,53.3604833 C0,54.2659634 0.734036647,55 1.63951674,55 L6.0620787,55 C6.96755879,55 7.70159543,54.2659634 7.70159543,53.3604833 L7.70159543,52.8920499 C8.40224884,52.4536698 9.15119466,52.0976894 9.93354259,51.8311861 C11.482585,51.3676068 13.0994071,51.1719107 14.7143183,51.2525332 L14.9209801,51.2525332 C16.5072071,51.2507254 18.0898596,51.4029922 19.646646,51.7071891 C21.8097059,52.1342901 22.0714774,52.5062813 24.468754,52.8920499 C24.7856354,52.8920499 25.9980511,53.1262666 27.610013,53.2364862 C28.3677728,53.2364862 29.0566454,53.2364862 29.7041856,53.2364862 L30.9303788,53.2364862 C33.4831975,53.1075376 35.9619309,52.3350069 38.135986,50.9907616 L53.8836131,42.2420798 C55.2099002,41.3112174 55.6749193,39.561583 54.9858093,38.0950669 L54.9858093,38.0950669 Z M5.38698357,37.5439688 L5.38698357,37.5439688 L5.38698357,52.6991656 L2.34216677,52.6991656 L2.34216677,36.7999865 L5.35942867,36.7999865 L5.38698357,37.5439688 Z M52.6436425,40.2994592 L37.0200124,48.9792537 L37.0200124,48.9792537 L37.0200124,48.9792537 C35.1645493,50.1690357 33.0343166,50.8617171 30.8339366,50.9907616 L29.6904082,50.9907616 C29.0428679,50.9907616 28.3953277,50.9907616 27.7477875,50.9907616 C26.3700423,50.9080969 25.2402913,50.7427675 24.8407452,50.6738802 C24.0367617,50.5504941 23.2442136,50.3615728 22.4710235,50.1090047 C21.6933472,49.8618258 20.9021424,49.6594246 20.1013019,49.5027968 C18.3949975,49.1662834 16.6601492,48.9955669 14.9209801,48.9930311 L14.7005408,48.9930311 C12.8376754,48.9059503 10.9736715,49.1389508 9.18956021,49.6819037 C8.68141617,49.8527473 8.18445739,50.055212 7.70159543,50.2881116 L7.70159543,38.7563846 C9.51290741,37.4658528 11.6532345,36.7157828 13.8738937,36.5933247 L14.3836595,36.5933247 C15.7022581,36.5630254 17.0150132,36.7779248 18.2551233,37.2270875 C19.6888389,37.7037543 21.1653135,38.0405751 22.6639079,38.2328414 C24.1380952,38.4257257 25.1162942,38.5772777 25.901609,38.7150522 C27.4597407,39.0041927 29.0427157,39.1380302 30.6272749,39.1145983 L36.854683,39.1145983 C37.3665928,39.1318261 37.830426,39.4208458 38.0714612,39.8727865 C38.3124965,40.3247272 38.2941147,40.8709285 38.0232402,41.3056415 C37.7523656,41.7403545 37.2701506,41.997536 36.7582408,41.9803083 L22.9807892,41.9803083 C22.5346222,41.9316999 22.0999192,42.1423577 21.8616059,42.5226662 C21.6232926,42.9029747 21.6232926,43.3860311 21.8616059,43.7663396 C22.0999192,44.1466481 22.5346222,44.3573059 22.9807892,44.3086976 L37.4608909,44.3086976 C37.975945,44.2900151 38.483941,44.1828233 38.9626331,43.9918162 L41.4701293,42.9447299 L51.7205532,38.5910552 C51.8164467,38.5765065 51.9139862,38.5765065 52.0098797,38.5910552 C52.4226128,38.5869087 52.79223,38.8458728 52.9292769,39.2352107 C53.0663238,39.6245485 52.9404151,40.0579378 52.6160876,40.3132366 L52.6436425,40.2994592 Z" id="Shape" fill="#FEBC11" fill-rule="nonzero"></path>
        <path d="M23.2425608,19.3715102 C23.7481499,19.7663266 24.3162911,20.0736817 24.9234099,20.280822 C25.5729156,20.5110478 26.24866,20.6591562 26.9349178,20.7217005 L26.9349178,21.8238966 C26.9244757,22.0729598 27.0137245,22.315915 27.182912,22.4989917 C27.5672581,22.8699297 28.176311,22.8699297 28.5606571,22.4989917 C28.7298446,22.315915 28.8190934,22.0729598 28.8086513,21.8238966 L28.8086513,20.6803681 C29.8400508,20.5769208 30.8085557,20.1362511 31.5641416,19.42662 C32.2267051,18.7851747 32.5912929,17.8961798 32.5698955,16.9742336 C32.605184,16.2943738 32.3949251,15.624479 31.9774651,15.0867228 C31.6083867,14.6327174 31.1359692,14.2736801 30.59972,14.0396364 C29.9005031,13.7630882 29.1822022,13.5374681 28.4504375,13.3645413 C27.7891198,13.1992119 27.2655767,13.0476599 26.879808,12.9098854 C26.5203129,12.7956879 26.1908322,12.6027064 25.9153864,12.3450099 C25.6578641,12.0914442 25.518009,11.7418065 25.5296178,11.3805883 C25.5076556,10.8368256 25.7615418,10.3186905 26.2047129,10.0028431 C26.7322357,9.64784057 27.360791,9.47377909 27.9957816,9.50685488 C28.5311759,9.49389059 29.0641617,9.58272156 29.5664111,9.76862646 C30.0549743,9.97524614 30.5174256,10.2388434 30.9441563,10.5539412 C31.0737103,10.6418925 31.2122669,10.7157893 31.3574798,10.7743804 C31.4623407,10.7923734 31.5695003,10.7923734 31.6743612,10.7743804 C31.8893247,10.7690154 32.0888742,10.6615657 32.2116818,10.4850539 C32.3605377,10.2920301 32.4383817,10.053633 32.432121,9.80995881 C32.437038,9.46946454 32.2716343,9.14899497 31.9912426,8.95575681 C31.0948108,8.20125229 29.9989321,7.72270265 28.8362062,7.57801165 L28.8362062,6.58603514 C28.8466483,6.33697197 28.7573995,6.09401678 28.588212,5.91094001 C28.2038659,5.54000207 27.594813,5.54000207 27.2104669,5.91094001 C27.0412794,6.09401678 26.9520306,6.33697197 26.9624727,6.58603514 L26.9624727,7.72956362 C25.9296155,7.84756201 24.962818,8.29712285 24.2069824,9.01086662 C23.5256344,9.65982899 23.1460932,10.5637364 23.1598961,11.5045854 C23.1231043,12.2102435 23.3433734,12.9053147 23.7798814,13.4609835 C24.1736567,13.9309215 24.6744931,14.2994615 25.2402913,14.5356247 C25.9619339,14.8225649 26.7032251,15.0573838 27.458461,15.2382747 C28.1060012,15.4173816 28.6157669,15.5551561 28.9739807,15.6791532 C29.3088494,15.7915394 29.6179706,15.9695182 29.8832925,16.2026963 C30.1239424,16.4198804 30.2552623,16.7330279 30.2415062,17.0568983 C30.2744195,17.5996598 30.0242564,18.120833 29.5801885,18.4346435 C29.0188572,18.7802669 28.3643937,18.9438827 27.7064551,18.9030769 C27.1321076,18.9092282 26.560329,18.8255533 26.0118286,18.6550827 C25.4313031,18.4650678 24.8796385,18.1961893 24.3723118,17.8559905 L23.9589883,17.6493288 C23.8497548,17.6284777 23.7375629,17.6284777 23.6283295,17.6493288 C23.4170577,17.6545587 23.2216311,17.7625575 23.1047863,17.9386552 C22.9589117,18.1279703 22.8812365,18.3609961 22.8843471,18.5999729 C22.8795703,18.7703877 22.9125025,18.9397532 22.9807892,19.0959612 C23.0476626,19.2052246 23.1368681,19.2991251 23.2425608,19.3715102 Z" id="Path" fill="#FEBC11" opacity="0.4"></path>
        <path d="M27.6651228,28.3819635 C33.4060087,28.3819635 38.5813498,24.9229969 40.7770024,19.618576 C42.9726551,14.3141551 41.7560253,8.2093702 37.6946348,4.15192284 C33.6332443,0.0944754863 27.5272806,-1.1162239 22.2249949,1.08458014 C16.9227093,3.28538418 13.468774,8.46408262 13.4743409,14.2049659 C13.4819515,22.0369336 19.8331514,28.3819635 27.6651228,28.3819635 Z M27.6651228,2.3288026 C34.2165376,2.3288026 39.5275086,7.63977363 39.5275086,14.1911884 C39.5275086,20.7426032 34.2165376,26.0535742 27.6651228,26.0535742 C21.113708,26.0535742 15.802737,20.7426032 15.802737,14.1911884 C15.8103398,7.64515471 21.1190847,2.34257564 27.6651228,2.34258005 L27.6651228,2.3288026 Z" id="Shape" fill="#FEBC11" fill-rule="nonzero"></path>
    </g>
</svg>