<?xml version="1.0" encoding="UTF-8"?>
<svg width="55px" height="55px" viewBox="0 0 55 55" version="1.1" xmlns="http://www.w3.org/2000/svg" xmlns:xlink="http://www.w3.org/1999/xlink">
    <title>icons/ flexible</title>
    <g id="icons/-flexible" stroke="none" stroke-width="1" fill="none" fill-rule="evenodd">
        <path d="M50.4166667,3.66666667 L48.5833333,3.66666667 L48.5833333,2.75 C48.5833333,1.23121698 47.3521164,0 45.8333333,0 C44.3145503,0 43.0833334,1.23121698 43.0833333,2.75 L43.0833333,3.66666667 L39.4166667,3.66666667 L39.4166667,2.75 C39.4166667,1.23121694 38.1854497,0 36.6666667,0 C35.1478836,0 33.9166667,1.23121694 33.9166667,2.75 L33.9166667,3.66666667 L30.25,3.66666667 L30.25,2.75 C30.25,1.23121694 29.0187831,0 27.5,0 C25.9812169,0 24.75,1.23121694 24.75,2.75 L24.75,3.66666667 L21.0833333,3.66666667 L21.0833333,2.75 C21.0833333,1.23121694 19.8521164,0 18.3333333,0 C16.8145503,0 15.5833333,1.23121694 15.5833333,2.75 L15.5833333,3.66666667 L11.9166667,3.66666667 L11.9166667,2.75 C11.9166667,1.23121694 10.6854497,0 9.16666667,0 C7.6478836,0 6.41666667,1.23121694 6.41666667,2.75 L6.41666667,3.66666667 L4.58333333,3.66666667 C2.05328461,3.66969727 0.00303060664,5.71995128 0,8.25 L0,50.4166667 C0.00303060664,52.9467154 2.05328461,54.9969694 4.58333333,55 L50.4166667,55 C52.9467154,54.9969694 54.9969694,52.9467154 55,50.4166667 L55,8.25 C54.9969694,5.71995128 52.9467154,3.66969727 50.4166667,3.66666667 Z M44.9166667,2.75 C44.9166667,2.24373898 45.3270723,1.83333333 45.8333333,1.83333333 C46.3395944,1.83333333 46.75,2.24373898 46.75,2.75 L46.75,6.41666667 C46.75,6.92292769 46.3395944,7.33333333 45.8333333,7.33333333 C45.3270723,7.33333333 44.9166667,6.92292769 44.9166667,6.41666667 L44.9166667,2.75 Z M35.75,2.75 C35.75,2.24373898 36.1604056,1.83333333 36.6666667,1.83333333 C37.1729277,1.83333333 37.5833333,2.24373898 37.5833333,2.75 L37.5833333,6.41666667 C37.5833333,6.92292769 37.1729277,7.33333333 36.6666667,7.33333333 C36.1604056,7.33333333 35.75,6.92292769 35.75,6.41666667 L35.75,2.75 Z M26.5833333,2.75 C26.5833333,2.24373898 26.993739,1.83333333 27.5,1.83333333 C28.006261,1.83333333 28.4166667,2.24373898 28.4166667,2.75 L28.4166667,6.41666667 C28.4166667,6.92292769 28.006261,7.33333333 27.5,7.33333333 C26.993739,7.33333333 26.5833333,6.92292769 26.5833333,6.41666667 L26.5833333,2.75 Z M17.4166667,2.75 C17.4166667,2.24373898 17.8270723,1.83333333 18.3333333,1.83333333 C18.8395944,1.83333333 19.25,2.24373898 19.25,2.75 L19.25,6.41666667 C19.25,6.92292769 18.8395944,7.33333333 18.3333333,7.33333333 C17.8270723,7.33333333 17.4166667,6.92292769 17.4166667,6.41666667 L17.4166667,2.75 Z M8.25,2.75 C8.25,2.24373898 8.66040565,1.83333333 9.16666667,1.83333333 C9.67292769,1.83333333 10.0833333,2.24373898 10.0833333,2.75 L10.0833333,6.41666667 C10.0833333,6.92292769 9.67292769,7.33333333 9.16666667,7.33333333 C8.66040565,7.33333333 8.25,6.92292769 8.25,6.41666667 L8.25,2.75 Z M4.58333333,5.5 L6.41666667,5.5 L6.41666667,6.41666667 C6.41666667,7.93544973 7.6478836,9.16666667 9.16666667,9.16666667 C10.6854497,9.16666667 11.9166667,7.93544973 11.9166667,6.41666667 L11.9166667,5.5 L15.5833333,5.5 L15.5833333,6.41666667 C15.5833333,7.93544973 16.8145503,9.16666667 18.3333333,9.16666667 C19.8521164,9.16666667 21.0833333,7.93544973 21.0833333,6.41666667 L21.0833333,5.5 L24.75,5.5 L24.75,6.41666667 C24.75,7.93544973 25.9812169,9.16666667 27.5,9.16666667 C29.0187831,9.16666667 30.25,7.93544973 30.25,6.41666667 L30.25,5.5 L33.9166667,5.5 L33.9166667,6.41666667 C33.9166667,7.93544973 35.1478836,9.16666667 36.6666667,9.16666667 C38.1854497,9.16666667 39.4166667,7.93544973 39.4166667,6.41666667 L39.4166667,5.5 L43.0833333,5.5 L43.0833333,6.41666667 C43.0833334,7.93544968 44.3145503,9.16666655 45.8333333,9.16666655 C47.3521164,9.16666655 48.5833333,7.93544968 48.5833333,6.41666667 L48.5833333,5.5 L50.4166667,5.5 C51.9354497,5.5 53.1666667,6.73121694 53.1666667,8.25 L53.1666667,11 L1.83333333,11 L1.83333333,8.25 C1.83333333,6.73121694 3.06455027,5.5 4.58333333,5.5 Z M50.4166667,53.1666667 L4.58333333,53.1666667 C3.06455027,53.1666667 1.83333333,51.9354497 1.83333333,50.4166667 L1.83333333,12.8333333 L53.1666667,12.8333333 L53.1666667,50.4166667 C53.1666667,51.9354497 51.9354497,53.1666667 50.4166667,53.1666667 Z" id="Shape" fill="#FEBC11" fill-rule="nonzero"></path>
        <path d="M38.5,21.0833333 C31.9217479,21.0909105 26.5909105,26.4217479 26.5833333,33 C26.5900336,38.5184864 22.1593718,43.0171885 16.6414241,43.0945842 C11.1234764,43.1719799 6.56838333,38.7993136 6.42030484,33.2828102 C6.27222636,27.7663068 10.5861796,23.1555703 16.1003333,22.9368333 L14.93525,24.1019167 C14.6969565,24.3320683 14.6013885,24.6728881 14.6852776,24.9933817 C14.7691668,25.3138754 15.019458,25.5641666 15.3399516,25.6480557 C15.6604453,25.7319449 16.0012651,25.6363769 16.2314167,25.3980833 L18.9814167,22.6480833 C19.3392668,22.2901251 19.3392668,21.7098749 18.9814167,21.3519167 L16.2314167,18.6019167 C15.871736,18.2545255 15.3000056,18.2594937 14.9464163,18.613083 C14.592827,18.9666723 14.5878588,19.5384027 14.93525,19.8980833 L16.1388333,21.1016667 C9.6110911,21.3032278 4.46320628,26.7239548 4.59873307,33.2534017 C4.73425986,39.7828487 10.1026419,44.9852975 16.6331257,44.9158189 C23.1636094,44.8463404 28.4200899,39.5308525 28.4166667,33 C28.4099664,27.4815136 32.8406282,22.9828115 38.3585759,22.9054158 C43.8765236,22.8280201 48.4316167,27.2006864 48.5796952,32.7171898 C48.7277736,38.2336932 44.4138204,42.8444297 38.8996667,43.0631667 L40.06475,41.8980833 C40.4121412,41.5384027 40.407173,40.9666723 40.0535837,40.613083 C39.6999944,40.2594937 39.128264,40.2545255 38.7685833,40.6019167 L36.0185833,43.3519167 C35.6607332,43.7098749 35.6607332,44.2901251 36.0185833,44.6480833 L38.7685833,47.3980833 C39.128264,47.7454745 39.6999944,47.7405063 40.0535837,47.386917 C40.407173,47.0333277 40.4121412,46.4615973 40.06475,46.1019167 L38.8611667,44.8983333 C45.3652974,44.7006024 50.5068057,39.3193665 50.408133,32.812979 C50.3094603,26.3065916 45.0071356,21.0837418 38.5,21.0833333 Z" id="Path" fill="#FEBC11" fill-rule="nonzero" opacity="0.4"></path>
    </g>
</svg>