<svg width="67" height="59" viewBox="0 0 67 59" fill="none" xmlns="http://www.w3.org/2000/svg">
<g id="masters-icon">
<path id="Shape" fill-rule="evenodd" clip-rule="evenodd" d="M55.4445 18.9804C55.0007 18.8198 54.504 18.9679 54.2207 19.3454L45.4068 31.0149C43.4212 33.6446 41.0799 35.9859 38.4502 37.9715L26.7807 46.7854C26.3849 47.086 26.2473 47.6189 26.4479 48.0736C28.4236 53.0348 32.3579 56.9614 37.323 58.9272C37.7706 59.1009 38.2791 58.9562 38.5683 58.573L47.3821 46.9035C47.9082 46.2164 48.4557 45.54 49.0354 44.8959L49.5829 49.0076C49.6583 49.5412 50.1176 49.9362 50.6565 49.9309H50.796C51.0798 49.8936 51.337 49.7444 51.5104 49.5166C51.6837 49.2889 51.7589 49.0013 51.7193 48.7178L51.0322 43.5862L56.1638 44.2733H56.3034C56.8963 44.3148 57.4105 43.8678 57.4521 43.2749C57.4936 42.6819 57.0466 42.1677 56.4536 42.1262L52.3419 41.5679C52.7395 41.2167 53.1494 40.89 53.5665 40.5576L53.5665 40.5576C53.8251 40.3515 54.0865 40.1431 54.3495 39.9254L66.019 31.1115C66.3863 30.8356 66.5373 30.3566 66.3947 29.9199C64.7291 24.7168 60.6492 20.6409 55.4445 18.9804ZM45.6752 45.5723L37.3552 56.6191C33.5292 54.9162 30.4696 51.8566 28.7668 48.0307L39.7277 39.6892C40.8507 38.8479 41.9259 37.9447 42.9484 36.9838L48.4128 42.459C47.4442 43.4461 46.5303 44.4854 45.6752 45.5723ZM49.8943 40.8916C50.8964 39.9365 51.9501 39.0369 53.0505 38.197L64.0973 29.834C62.621 25.835 59.4544 22.692 55.4445 21.2456L47.1245 32.271C46.2813 33.3719 45.3782 34.4255 44.4191 35.4272L49.8943 40.8916Z" fill="#FEBC11"/>
<path id="Shape_2" fill-rule="evenodd" clip-rule="evenodd" d="M41.4454 21.7179C35.5343 27.6291 27.4621 30.8642 19.1048 30.6714L21.4773 39.0558C21.5655 39.3408 21.5312 39.6496 21.3825 39.9082C21.2338 40.1669 20.9843 40.352 20.6936 40.4192C20.5976 40.4348 20.4997 40.4348 20.4037 40.4192C19.9078 40.4375 19.4639 40.1135 19.3302 39.6355L16.8825 30.6177H13.4686C13.0352 30.6155 12.6456 30.353 12.4809 29.9521L9.00264 21.4818L1.07983 21.4066C0.64368 21.4091 0.249349 21.1476 0.0820994 20.7447C-0.0851501 20.3419 0.00792879 19.878 0.317605 19.5708L19.4698 0.322065C19.6706 0.117172 19.9451 0.00119102 20.232 0L47.3714 0.257652C47.8055 0.259473 48.1959 0.522655 48.3604 0.924486C48.5249 1.32632 48.4311 1.78767 48.1228 2.09343L42.4652 7.7403C42.841 8.54547 43.3455 9.76932 44.097 11.6158L45.9757 16.1892C46.1363 16.5881 46.0434 17.0443 45.7396 17.3486L41.4454 21.7179ZM39.9531 20.2042L43.7964 16.3395H43.7642C43.163 14.8902 41.7245 11.3796 40.8978 9.36137L29.0136 21.3422C28.811 21.5432 28.5368 21.6552 28.2514 21.6535L16.5926 21.5462L18.5358 28.5243C26.5309 28.9084 34.314 25.8849 39.9531 20.2042ZM20.6614 2.15784L44.8056 2.38328L27.779 19.5601L17.2368 19.4635L23.356 12.4854C23.7165 12.0378 23.6606 11.3857 23.2292 11.0061C22.7977 10.6264 22.1438 10.6538 21.7457 11.0683L14.4133 19.3776H9.73265H3.63488L20.6614 2.15784ZM11.8904 22.806C12.7071 24.7878 13.7434 27.3027 14.2201 28.4813H16.3028L14.3597 21.5032H11.3537C11.513 21.8901 11.6955 22.3329 11.8904 22.806Z" fill="#FEBC11"/>
</g>
</svg>
